<svg viewBox="0 0 1792 1792" xmlns="http://www.w3.org/2000/svg">
  <path
      fill="currentColor"
      d="M 128 896 C 128 1000 148.33 1099.33 189 1194 C 229.67 1288.67 284.33 1370.33 353 1439 C 421.67 1507.67 503.33 1562.33 598 1603 C 692.67 1643.67 792 1664 896 1664 C 1010.67 1664 1119.67 1639.83 1223 1591.5 C 1326.33 1543.17 1414.33 1475 1487 1387 C 1491.67 1380.33 1493.83 1372.83 1493.5 1364.5 C 1493.17 1356.17 1490.33 1349.33 1485 1344 L 1348 1206 C 1341.33 1200 1333 1197 1323 1197 C 1312.33 1198.33 1304.67 1202.33 1300 1209 C 1251.33 1272.33 1191.67 1321.33 1121 1356 C 1050.33 1390.67 975.333 1408 896 1408 C 826.667 1408 760.5 1394.5 697.5 1367.5 C 634.5 1340.5 580 1304 534 1258 C 488 1212 451.5 1157.5 424.5 1094.5 C 397.5 1031.5 384 965.333 384 896 C 384 826.667 397.5 760.5 424.5 697.5 C 451.5 634.5 488 580 534 534 C 580 488 634.5 451.5 697.5 424.5 C 760.5 397.5 826.667 384 896 384 C 961.333 384 1024 395.83 1084 419.5 C 1144 443.17 1197.33 477 1244 521 L 1107 659 C 1086.33 679 1081.67 702 1093 728 C 1104.33 754.67 1124 768 1152 768 L 1600 768 C 1617.33 768 1632.33 761.67 1645 749 C 1657.67 736.33 1664 721.33 1664 704 L 1664 256 C 1664 228 1650.67 208.33 1624 197 C 1598 185.67 1575 190.33 1555 211 L 1425 340 C 1353.67 272.67 1272.17 220.5 1180.5 183.5 C 1088.83 146.5 994 128 896 128 C 792 128 692.67 148.33 598 189 C 503.33 229.67 421.67 284.33 353 353 C 284.33 421.67 229.67 503.33 189 598 C 148.33 692.67 128 792 128 896 Z M 768 608 L 768 1056 C 768 1065.33 771 1073 777 1079 C 783 1085 790.67 1088 800 1088 L 1120 1088 C 1129.33 1088 1137 1085 1143 1079 C 1149 1073 1152 1065.33 1152 1056 L 1152 992 C 1152 982.667 1149 975 1143 969 C 1137 963 1129.33 960 1120 960 L 896 960 L 896 608 C 896 598.67 893 591 887 585 C 881 579 873.333 576 864 576 L 800 576 C 790.67 576 783 579 777 585 C 771 591 768 598.67 768 608 Z"/>

</svg>
